<svg version="1.1" id="Layer_1" xmlns="http://www.w3.org/2000/svg" xmlns:xlink="http://www.w3.org/1999/xlink" x="0px" y="0px"
	 width="100%" viewBox="0 0 626 628" enable-background="new 0 0 626 628" xml:space="preserve">
<path fill="#FEFFFE" opacity="1.000000" stroke="none" 
	d="
M1.000000,628.000000 
	C1.000000,419.034973 1.000000,210.069931 1.000000,1.052452 
	C209.596771,1.052452 418.193542,1.052452 626.895142,1.052452 
	C626.895142,210.228394 626.895142,419.456848 626.895142,629.000000 
	C418.973236,629.000000 210.946320,629.000000 2.359428,628.772705 
	C1.617046,628.240417 1.350564,628.058594 1.000000,628.000000 
M403.785980,504.853943 
	C400.981140,505.063324 398.176300,505.272736 395.252960,505.490997 
	C398.482758,508.793549 401.130493,508.898407 406.568726,505.955994 
	C406.707489,505.299591 406.846252,504.643158 406.984985,503.986755 
	C406.149048,504.209259 405.313141,504.431763 403.785980,504.853943 
M408.154785,494.210297 
	C404.274475,487.490417 398.406525,486.592102 392.016693,492.302521 
	C389.139740,498.643585 390.248474,503.442719 395.517181,505.512360 
	C394.688934,503.361908 393.973022,501.503174 393.047272,499.099487 
	C398.636047,499.099487 403.590668,499.099487 409.108368,499.099487 
	C408.727051,497.387878 408.453583,496.160309 408.154785,494.210297 
M276.503998,508.586273 
	C279.020752,508.382965 281.537537,508.179688 284.821777,507.988800 
	C287.104370,504.621124 286.842834,493.390015 284.421997,490.818604 
	C281.116150,487.307281 274.033295,488.023865 271.118835,492.455109 
	C275.471313,492.820953 281.956146,487.305176 283.328033,497.018829 
	C280.935089,497.018829 278.971527,496.977783 277.010284,497.027802 
	C273.559875,497.115814 270.453766,498.176544 270.184998,502.079041 
	C269.929199,505.792999 272.334381,507.732391 276.503998,508.586273 
M465.895660,494.685028 
	C464.277557,493.117645 462.659424,491.550232 460.338104,489.931213 
	C454.299347,487.006409 447.939728,490.327820 447.322571,496.906342 
	C446.975067,500.610657 447.236084,504.292450 451.197723,506.337494 
	C455.491241,508.553864 459.676697,509.244843 463.932770,505.046295 
	C463.479462,504.761902 463.026184,504.477509 461.827820,504.318085 
	C454.753815,506.723419 451.212677,505.213654 451.245941,499.281586 
	C454.991089,499.281586 458.763428,499.104126 462.510315,499.336517 
	C465.637665,499.530426 466.159882,497.989868 465.895660,494.685028 
M248.268143,488.708893 
	C241.309250,489.651123 238.338455,492.408478 238.199341,498.054291 
	C238.077820,502.986206 241.412369,507.088501 246.261353,507.972351 
	C250.504318,508.745728 253.494064,507.339081 254.749054,503.978973 
	C245.238800,506.183777 243.173004,505.536682 241.902420,499.333954 
	C246.889984,499.333954 251.782318,499.333954 257.351379,499.333954 
	C256.782837,497.009003 256.406281,495.469238 256.021729,493.230194 
	C253.713654,491.739655 251.405579,490.249115 248.268143,488.708893 
M422.748566,507.995667 
	C423.809357,508.007111 424.870178,508.018555 426.703400,507.996399 
	C429.279999,504.613861 428.900574,493.149078 426.124268,490.497528 
	C422.703308,487.230286 415.160492,488.325012 413.422729,492.340942 
	C424.156311,491.160767 424.418427,491.257111 424.748322,496.684814 
	C422.126221,496.869598 419.218231,496.421356 416.960297,497.429291 
	C414.963318,498.320679 412.717041,500.643890 412.320801,502.674469 
	C411.691711,505.898132 414.372131,507.648712 417.488678,508.055939 
	C418.948303,508.246704 420.462830,508.017395 422.748566,507.995667 
M331.835114,489.967377 
	C329.964386,489.491455 328.093658,489.015564 325.401093,488.639130 
	C324.484772,488.967926 323.566254,489.290771 322.652496,489.626526 
	C316.765045,491.789917 314.430328,496.770294 316.698547,502.321442 
	C318.773010,507.398376 324.056793,509.269653 329.551392,507.199615 
	C331.000519,506.653656 332.829956,507.117249 334.690125,507.117249 
	C334.690125,498.900970 334.690125,489.998901 334.690125,480.682526 
	C333.679413,481.285004 333.202972,481.421997 333.186798,481.600677 
	C332.934570,484.385956 332.741852,487.176605 331.835114,489.967377 
M276.986542,158.547821 
	C264.996613,146.590500 253.006668,134.633179 240.954559,122.613831 
	C239.891708,123.565720 239.248398,124.087418 238.666702,124.670578 
	C205.364349,158.056183 172.055450,191.435303 138.790390,224.858047 
	C135.976273,227.685486 133.304565,230.686127 130.829590,233.814316 
	C118.822029,248.991196 117.821671,262.131073 128.389053,278.282684 
	C133.273148,285.747772 139.036850,292.811066 145.302475,299.168915 
	C175.126801,329.432220 205.259521,359.391632 235.289581,389.452118 
	C236.444382,390.608124 237.671616,391.691772 238.131973,392.122742 
	C252.303314,378.006287 266.257080,364.106567 281.045197,349.375732 
	C250.973557,319.432007 220.431641,289.020050 189.235565,257.956696 
	C204.859711,242.522430 220.514511,227.106186 236.114105,211.634262 
	C251.705231,196.170715 267.241119,180.651459 284.323853,163.640381 
	C281.649506,161.844894 279.571564,160.449829 276.986542,158.547821 
M397.835907,303.322876 
	C382.035370,319.021057 366.234802,334.719238 351.035950,349.819641 
	C365.439697,364.195923 379.270782,378.000671 393.334137,392.037231 
	C393.864288,391.564392 395.018951,390.633362 396.061523,389.590332 
	C425.382141,360.254211 454.828308,331.041351 483.906647,301.466858 
	C491.213593,294.035278 498.076202,285.929626 503.826721,277.260620 
	C512.390320,264.350922 513.031494,250.724503 503.379608,237.693634 
	C500.420044,233.697998 497.335052,229.726868 493.843903,226.203903 
	C460.899445,192.958862 427.856354,159.811569 394.832489,126.645233 
	C393.475250,125.282150 392.026794,124.009918 391.597046,123.608116 
	C377.282501,137.865356 363.436340,151.656128 348.659698,166.373642 
	C349.563019,166.979156 351.313568,167.786545 352.594177,169.064758 
	C381.124786,197.541840 409.550201,226.124603 438.165070,254.516510 
	C441.449890,257.775726 441.425232,259.578094 438.149323,262.792877 
	C424.717926,275.973480 411.571259,289.444214 397.835907,303.322876 
M302.726898,308.773041 
	C306.871490,313.082001 311.016052,317.390930 314.429749,320.940033 
	C335.743500,299.691071 356.650757,278.847382 377.064758,258.495453 
	C356.687347,238.180969 335.877075,217.434937 315.864502,197.484177 
	C295.461304,217.821503 274.642822,238.572769 253.430405,259.716705 
	C269.461151,275.668304 285.844177,291.970459 302.726898,308.773041 
M345.923218,415.649658 
	C345.923218,419.700134 345.923218,423.750641 345.923218,428.139709 
	C335.880005,422.675446 327.781219,423.397827 322.225922,429.817291 
	C315.981140,437.033386 315.638458,449.887665 321.482666,457.697205 
	C327.042480,465.126831 334.101807,465.978302 345.765930,460.695862 
	C348.724670,465.865631 353.248627,462.657593 357.311249,463.359375 
	C357.311249,445.354889 357.311249,427.829895 357.311249,410.024780 
	C353.425018,410.024780 349.855377,410.024780 345.923279,410.024780 
	C345.923279,411.753113 345.923279,413.233276 345.923218,415.649658 
M551.009155,463.633362 
	C561.669617,460.704071 566.250183,446.591217 561.696960,435.832916 
	C560.076172,432.003418 556.688782,428.302887 553.150024,426.043549 
	C547.320740,422.321869 541.116577,424.230347 534.993713,428.397430 
	C534.993713,421.751740 534.993713,416.003876 534.993713,410.028748 
	C530.998352,410.028748 527.422302,410.028748 523.579346,410.028748 
	C523.579346,427.849121 523.579346,445.381592 523.579346,463.275024 
	C527.865967,462.982208 532.389954,465.483704 534.641602,461.965118 
	C540.349365,462.657654 545.308655,463.259369 551.009155,463.633362 
M263.816681,423.260620 
	C267.058289,420.494934 266.007324,418.471680 262.949158,416.296448 
	C249.980972,407.072632 225.367264,411.350403 221.463028,433.559906 
	C219.449814,445.012238 224.785583,456.153229 234.762482,461.340515 
	C244.470917,466.388184 258.782593,464.480255 266.104858,456.921570 
	C264.248169,454.008911 262.346771,451.026154 260.439453,448.034088 
	C251.844681,453.897491 242.822052,453.895264 237.638153,448.370270 
	C232.851212,443.268341 232.658890,433.445862 237.240753,428.072906 
	C242.530945,421.869324 249.569183,421.807037 259.344940,428.043060 
	C260.654694,426.668274 262.007172,425.248657 263.816681,423.260620 
M499.357513,460.870239 
	C500.638763,461.734558 501.852356,463.188751 503.214783,463.345032 
	C506.426819,463.713379 509.709747,463.463196 513.018799,463.463196 
	C513.018799,450.322571 513.018799,437.919312 513.018799,424.917938 
	C508.652313,426.097076 503.721283,422.470703 500.547821,427.886505 
	C490.138672,421.589508 479.232483,424.097717 475.203857,434.326935 
	C473.574341,438.464447 472.984802,443.421570 473.387970,447.872955 
	C474.613495,461.404510 486.771301,467.616516 499.357513,460.870239 
M271.128754,447.990631 
	C271.546265,449.420624 271.777313,450.939819 272.411926,452.265930 
	C276.156799,460.091797 282.530731,463.979279 291.105225,464.124115 
	C299.411285,464.264404 306.242615,461.103424 309.991302,453.484375 
	C313.723663,445.898468 313.085846,438.329468 307.723297,431.490356 
	C302.533386,424.871399 292.218903,422.392212 283.617035,425.631592 
	C274.755280,428.968781 270.526367,436.213226 271.128754,447.990631 
M190.851929,449.698090 
	C189.126694,445.751556 192.437378,446.945129 193.944992,446.916809 
	C201.042847,446.783386 208.144592,446.857391 215.113953,446.857391 
	C216.835419,437.117096 212.795227,429.002258 205.015182,425.685791 
	C196.759964,422.166779 187.000259,424.827271 181.829956,432.006073 
	C175.912994,440.221619 176.991608,452.718323 184.153351,458.925446 
	C192.578751,466.227692 205.502197,465.990143 213.955811,458.137970 
	C212.257065,455.820435 210.535767,453.472107 208.801788,451.106476 
	C202.518082,454.553558 196.768921,455.431641 190.851929,449.698090 
M390.489563,446.850098 
	C394.388916,446.850098 398.288269,446.850098 402.091614,446.850098 
	C403.120697,435.010498 398.314240,427.254181 389.074585,424.853638 
	C379.726257,422.424866 370.501068,426.684845 366.664429,435.202240 
	C362.583069,444.262909 365.120300,455.199310 372.492035,460.321136 
	C380.963409,466.206970 393.579956,465.274841 400.570953,458.034790 
	C398.971039,455.825165 397.339142,453.571320 395.763367,451.395020 
	C384.664948,455.552948 378.492584,454.125458 377.050232,446.850037 
	C381.254547,446.850037 385.377350,446.850037 390.489563,446.850098 
M446.590485,418.705505 
	C446.590485,416.781555 446.590485,414.857635 446.590485,412.946777 
	C442.081177,412.946777 438.337036,412.946777 434.522400,412.946777 
	C434.522400,429.879456 434.522400,446.452423 434.522400,463.073181 
	C446.231812,463.073181 457.606598,463.073181 468.861633,463.073181 
	C468.861633,459.390656 468.861633,456.147156 468.861633,452.448792 
	C461.385834,452.448792 454.283508,452.448792 446.590271,452.448792 
	C446.590271,441.214081 446.590271,430.435608 446.590485,418.705505 
M84.247154,443.446594 
	C84.247154,433.346649 84.247154,423.246674 84.247154,412.924164 
	C79.862099,412.924164 76.106712,412.924164 72.140488,412.924164 
	C72.140488,429.801941 72.140488,446.382080 72.140488,463.150635 
	C83.762352,463.150635 95.164345,463.150635 106.649460,463.150635 
	C106.649460,459.581879 106.649460,456.330750 106.649460,452.448853 
	C99.141571,452.448853 91.921280,452.448853 84.247276,452.448853 
	C84.247276,449.359924 84.247276,446.893341 84.247154,443.446594 
M145.434158,453.322723 
	C146.529190,455.930908 147.488434,458.607178 148.753647,461.130035 
	C150.334518,464.282410 158.265274,464.768738 159.661133,461.690216 
	C165.066422,449.768951 170.237579,437.741516 175.559982,425.607635 
	C163.395996,423.731995 163.394180,423.731384 159.770401,434.424835 
	C159.075638,436.475037 158.450867,438.550385 157.704361,440.581268 
	C156.855179,442.891418 155.905609,445.164673 154.459290,448.819458 
	C151.828568,440.936829 149.825516,434.602722 147.544495,428.370392 
	C147.067581,427.067322 145.667923,425.338257 144.515823,425.190491 
	C141.177750,424.762360 137.749283,425.038910 133.609985,425.038910 
	C137.728989,434.869934 141.444778,443.738617 145.434158,453.322723 
M115.556335,429.851562 
	C115.556335,440.930054 115.556335,452.008545 115.556335,463.039368 
	C119.754845,463.039368 123.288933,463.039368 126.733009,463.039368 
	C126.733009,450.232697 126.733009,437.855316 126.733009,425.046661 
	C123.888451,425.046661 121.408386,425.230072 118.966988,425.001129 
	C115.785744,424.702789 115.333900,426.444061 115.556335,429.851562 
M216.228958,505.331940 
	C219.469574,506.152496 222.673218,507.242859 225.964493,507.693665 
	C227.975052,507.968994 230.120285,507.261108 232.834900,506.914398 
	C232.834900,498.825623 232.834900,489.892181 232.834900,480.958740 
	C232.207321,480.901733 231.579727,480.844757 230.952148,480.787750 
	C230.563904,483.982269 230.175659,487.176819 229.789871,490.351196 
	C223.201935,487.640076 219.127258,488.015106 215.905945,491.889923 
	C212.424973,496.077148 212.786331,500.422943 216.228958,505.331940 
M171.030167,501.310242 
	C168.020752,496.908630 168.127396,492.508606 171.476257,488.434875 
	C174.630432,484.597961 179.166489,484.119232 184.687241,486.460052 
	C185.685074,486.883148 186.933960,486.714142 189.202240,486.923065 
	C182.460190,480.484283 173.851471,480.877533 168.842392,486.773102 
	C164.028503,492.438995 164.845917,500.893982 170.645523,505.422852 
	C176.298203,509.837036 184.467178,509.119995 188.819977,502.826263 
	C182.417740,504.420013 176.408600,507.868866 171.030167,501.310242 
M371.190826,505.998322 
	C371.545593,505.200256 371.900360,504.402191 372.255157,503.604095 
	C371.084320,503.784729 369.812927,503.732483 368.760376,504.187042 
	C364.600250,505.983582 360.594666,505.970184 357.023712,503.059570 
	C353.609955,500.277100 352.562439,496.526367 353.692078,492.259674 
	C355.333862,486.058716 362.048889,483.350220 368.653259,486.087799 
	C369.781372,486.555481 371.085602,486.598297 372.308472,486.837372 
	C367.822388,481.707336 362.286621,480.977386 356.983002,483.755127 
	C352.414001,486.148132 349.699860,491.477203 350.366913,496.745422 
	C351.574646,506.284241 360.776245,510.669189 371.190826,505.998322 
M205.580124,489.751953 
	C200.841171,487.581787 196.429764,487.986694 193.025146,492.097717 
	C190.271835,495.422333 189.845947,499.357422 192.039551,503.219482 
	C194.112381,506.868927 197.360962,508.508789 201.595261,508.103516 
	C205.821671,507.699005 208.862167,505.492767 210.053055,501.518372 
	C211.400681,497.020905 210.264404,492.999268 205.580124,489.751953 
M307.776001,495.161682 
	C307.972443,499.437073 308.168915,503.712433 308.365356,507.987823 
	C309.175476,507.986176 309.985596,507.984528 310.795715,507.982910 
	C310.795715,503.940430 311.091461,499.870911 310.724457,495.862061 
	C310.209961,490.242126 305.995728,487.651093 300.442322,488.895020 
	C298.214508,489.394043 295.888397,489.454315 293.036072,489.779388 
	C293.152405,495.342682 292.769196,501.670074 293.269653,508.612183 
	C294.913086,507.717010 295.422638,507.582275 295.434998,507.411560 
	C295.660461,504.299103 295.331146,501.042511 296.159454,498.110260 
	C296.836365,495.713928 298.477600,492.529663 300.432922,491.859955 
	C302.301270,491.219971 305.126923,493.374939 307.776001,495.161682 
M127.480919,408.402313 
	C126.475258,407.578674 125.424103,406.011658 124.472427,406.069946 
	C121.547577,406.248962 118.138039,406.326416 115.965584,407.895386 
	C114.762978,408.763947 114.664734,413.834290 115.818520,414.712982 
	C117.942146,416.330322 121.520111,417.147461 124.194405,416.661316 
	C127.818329,416.002502 128.520721,412.600037 127.480919,408.402313 
M435.891846,505.172882 
	C439.469727,509.218292 441.812195,509.394440 444.165527,506.439575 
	C442.341675,505.191650 439.388794,504.257751 438.872559,502.575928 
	C437.988708,499.696442 438.074158,496.199646 438.864075,493.260773 
	C439.260040,491.787354 442.105530,490.972290 443.654114,489.980591 
	C441.145599,488.125366 438.698853,486.315857 436.433777,484.640686 
	C434.936340,486.537628 433.471680,488.393005 432.866913,489.159149 
	C433.869324,492.029144 434.864380,493.958160 435.175018,495.991760 
	C435.597900,498.760620 435.498322,501.609283 435.891846,505.172882 
M377.985260,497.561554 
	C378.149323,501.035126 378.313385,504.508728 378.477448,507.982300 
	C379.326874,507.942902 380.176331,507.903503 381.025787,507.864105 
	C381.025787,504.389130 380.194550,500.629120 381.260712,497.519714 
	C382.316040,494.441925 385.285889,492.020599 387.333374,489.416321 
	C384.696716,489.416321 381.561432,489.416321 377.985229,489.416321 
	C377.985229,491.700928 377.985229,494.156219 377.985260,497.561554 
z"/>
<path fill="#DFDFDF" opacity="1.000000" stroke="none" 
	d="
M1.000000,628.500000 
	C1.350564,628.058594 1.617046,628.240417 1.899724,628.772705 
	C1.666667,629.000000 1.333333,629.000000 1.000000,628.500000 
z"/>
<path fill="#02FF85" opacity="1.000000" stroke="none" 
	d="
M277.240112,158.801300 
	C279.571564,160.449829 281.649506,161.844894 284.323853,163.640381 
	C267.241119,180.651459 251.705231,196.170715 236.114105,211.634262 
	C220.514511,227.106186 204.859711,242.522430 189.235565,257.956696 
	C220.431641,289.020050 250.973557,319.432007 281.045197,349.375732 
	C266.257080,364.106567 252.303314,378.006287 238.131973,392.122742 
	C237.671616,391.691772 236.444382,390.608124 235.289581,389.452118 
	C205.259521,359.391632 175.126801,329.432220 145.302475,299.168915 
	C139.036850,292.811066 133.273148,285.747772 128.389053,278.282684 
	C117.821671,262.131073 118.822029,248.991196 130.829590,233.814316 
	C133.304565,230.686127 135.976273,227.685486 138.790390,224.858047 
	C172.055450,191.435303 205.364349,158.056183 238.666702,124.670578 
	C239.248398,124.087418 239.891708,123.565720 240.954559,122.613831 
	C253.006668,134.633179 264.996613,146.590500 277.240112,158.801300 
z"/>
<path fill="#909090" opacity="1.000000" stroke="none" 
	d="
M398.077881,303.065552 
	C411.571259,289.444214 424.717926,275.973480 438.149323,262.792877 
	C441.425232,259.578094 441.449890,257.775726 438.165070,254.516510 
	C409.550201,226.124603 381.124786,197.541840 352.594177,169.064758 
	C351.313568,167.786545 349.563019,166.979156 348.659698,166.373642 
	C363.436340,151.656128 377.282501,137.865356 391.597046,123.608116 
	C392.026794,124.009918 393.475250,125.282150 394.832489,126.645233 
	C427.856354,159.811569 460.899445,192.958862 493.843903,226.203903 
	C497.335052,229.726868 500.420044,233.697998 503.379608,237.693634 
	C513.031494,250.724503 512.390320,264.350922 503.826721,277.260620 
	C498.076202,285.929626 491.213593,294.035278 483.906647,301.466858 
	C454.828308,331.041351 425.382141,360.254211 396.061523,389.590332 
	C395.018951,390.633362 393.864288,391.564392 393.334137,392.037231 
	C379.270782,378.000671 365.439697,364.195923 351.035950,349.819641 
	C366.234802,334.719238 382.035370,319.021057 398.077881,303.065552 
z"/>
<path fill="#424242" opacity="1.000000" stroke="none" 
	d="
M302.477051,308.522827 
	C285.844177,291.970459 269.461151,275.668304 253.430405,259.716705 
	C274.642822,238.572769 295.461304,217.821503 315.864502,197.484177 
	C335.877075,217.434937 356.687347,238.180969 377.064758,258.495453 
	C356.650757,278.847382 335.743500,299.691071 314.429749,320.940033 
	C311.016052,317.390930 306.871490,313.082001 302.477051,308.522827 
z"/>
<path fill="#484848" opacity="1.000000" stroke="none" 
	d="
M345.923248,415.181549 
	C345.923279,413.233276 345.923279,411.753113 345.923279,410.024780 
	C349.855377,410.024780 353.425018,410.024780 357.311249,410.024780 
	C357.311249,427.829895 357.311249,445.354889 357.311249,463.359375 
	C353.248627,462.657593 348.724670,465.865631 345.765930,460.695862 
	C334.101807,465.978302 327.042480,465.126831 321.482666,457.697205 
	C315.638458,449.887665 315.981140,437.033386 322.225922,429.817291 
	C327.781219,423.397827 335.880005,422.675446 345.923218,428.139709 
	C345.923218,423.750641 345.923218,419.700134 345.923248,415.181549 
M345.976257,446.102478 
	C346.078217,438.520813 343.631683,434.514893 338.581543,433.994537 
	C333.793884,433.501251 330.066498,436.430145 329.077179,441.462891 
	C327.899139,447.455963 330.474823,452.975861 335.013733,454.185333 
	C340.368011,455.612061 343.767273,453.346069 345.976257,446.102478 
z"/>
<path fill="#494949" opacity="1.000000" stroke="none" 
	d="
M550.638550,463.747223 
	C545.308655,463.259369 540.349365,462.657654 534.641602,461.965118 
	C532.389954,465.483704 527.865967,462.982208 523.579346,463.275024 
	C523.579346,445.381592 523.579346,427.849121 523.579346,410.028748 
	C527.422302,410.028748 530.998352,410.028748 534.993713,410.028748 
	C534.993713,416.003876 534.993713,421.751740 534.993713,428.397430 
	C541.116577,424.230347 547.320740,422.321869 553.150024,426.043549 
	C556.688782,428.302887 560.076172,432.003418 561.696960,435.832916 
	C566.250183,446.591217 561.669617,460.704071 550.638550,463.747223 
M541.112305,434.338623 
	C540.105591,434.894409 538.983276,435.310547 538.112976,436.031067 
	C534.972961,438.630554 533.795166,444.531525 535.560791,448.868744 
	C537.096741,452.641846 539.867981,454.599609 544.074097,454.284027 
	C549.114258,453.905884 552.185364,449.814026 552.030212,443.615845 
	C551.874573,437.396606 548.548401,434.319031 541.112305,434.338623 
z"/>
<path fill="#484848" opacity="1.000000" stroke="none" 
	d="
M263.588165,423.544830 
	C262.007172,425.248657 260.654694,426.668274 259.344940,428.043060 
	C249.569183,421.807037 242.530945,421.869324 237.240753,428.072906 
	C232.658890,433.445862 232.851212,443.268341 237.638153,448.370270 
	C242.822052,453.895264 251.844681,453.897491 260.439453,448.034088 
	C262.346771,451.026154 264.248169,454.008911 266.104858,456.921570 
	C258.782593,464.480255 244.470917,466.388184 234.762482,461.340515 
	C224.785583,456.153229 219.449814,445.012238 221.463028,433.559906 
	C225.367264,411.350403 249.980972,407.072632 262.949158,416.296448 
	C266.007324,418.471680 267.058289,420.494934 263.588165,423.544830 
z"/>
<path fill="#474747" opacity="1.000000" stroke="none" 
	d="
M499.031799,461.066864 
	C486.771301,467.616516 474.613495,461.404510 473.387970,447.872955 
	C472.984802,443.421570 473.574341,438.464447 475.203857,434.326935 
	C479.232483,424.097717 490.138672,421.589508 500.547821,427.886505 
	C503.721283,422.470703 508.652313,426.097076 513.018799,424.917938 
	C513.018799,437.919312 513.018799,450.322571 513.018799,463.463196 
	C509.709747,463.463196 506.426819,463.713379 503.214783,463.345032 
	C501.852356,463.188751 500.638763,461.734558 499.031799,461.066864 
M489.621643,434.844604 
	C484.963745,438.126312 483.424103,442.307373 484.949097,447.690338 
	C485.980621,451.331451 488.133545,454.399323 492.101532,454.001556 
	C494.895996,453.721436 498.438904,452.374817 500.008759,450.277588 
	C502.831818,446.506256 502.482452,441.804321 499.894897,437.672333 
	C497.635498,434.064331 494.186737,433.516846 489.621643,434.844604 
z"/>
<path fill="#474747" opacity="1.000000" stroke="none" 
	d="
M271.101196,447.555054 
	C270.526367,436.213226 274.755280,428.968781 283.617035,425.631592 
	C292.218903,422.392212 302.533386,424.871399 307.723297,431.490356 
	C313.085846,438.329468 313.723663,445.898468 309.991302,453.484375 
	C306.242615,461.103424 299.411285,464.264404 291.105225,464.124115 
	C282.530731,463.979279 276.156799,460.091797 272.411926,452.265930 
	C271.777313,450.939819 271.546265,449.420624 271.101196,447.555054 
M292.295563,454.087585 
	C293.683533,453.573883 295.229675,453.299042 296.431061,452.503510 
	C300.741577,449.649200 300.924438,445.214600 299.926605,440.885803 
	C298.987549,436.811829 296.068756,434.272827 291.666351,434.193176 
	C287.496704,434.117706 284.617523,436.397095 283.329681,440.172913 
	C281.330170,446.035278 283.629944,453.947235 292.295563,454.087585 
z"/>
<path fill="#4A4A4A" opacity="1.000000" stroke="none" 
	d="
M191.108414,450.065704 
	C196.768921,455.431641 202.518082,454.553558 208.801788,451.106476 
	C210.535767,453.472107 212.257065,455.820435 213.955811,458.137970 
	C205.502197,465.990143 192.578751,466.227692 184.153351,458.925446 
	C176.991608,452.718323 175.912994,440.221619 181.829956,432.006073 
	C187.000259,424.827271 196.759964,422.166779 205.015182,425.685791 
	C212.795227,429.002258 216.835419,437.117096 215.113953,446.857391 
	C208.144592,446.857391 201.042847,446.783386 193.944992,446.916809 
	C192.437378,446.945129 189.126694,445.751556 191.108414,450.065704 
M203.150818,436.293732 
	C197.067505,432.322449 191.972687,433.617279 189.969620,439.921997 
	C194.850204,439.921997 199.634705,439.921997 204.860321,439.921997 
	C204.355942,438.637024 204.011642,437.759857 203.150818,436.293732 
z"/>
<path fill="#494949" opacity="1.000000" stroke="none" 
	d="
M389.994843,446.850067 
	C385.377350,446.850037 381.254547,446.850037 377.050232,446.850037 
	C378.492584,454.125458 384.664948,455.552948 395.763367,451.395020 
	C397.339142,453.571320 398.971039,455.825165 400.570953,458.034790 
	C393.579956,465.274841 380.963409,466.206970 372.492035,460.321136 
	C365.120300,455.199310 362.583069,444.262909 366.664429,435.202240 
	C370.501068,426.684845 379.726257,422.424866 389.074585,424.853638 
	C398.314240,427.254181 403.120697,435.010498 402.091614,446.850098 
	C398.288269,446.850098 394.388916,446.850098 389.994843,446.850067 
M388.963745,435.527313 
	C382.505585,432.507599 378.209991,434.021545 376.874115,439.909149 
	C381.567017,439.909149 386.226044,439.909149 391.559448,439.909149 
	C390.716858,438.280518 390.146332,437.177673 388.963745,435.527313 
z"/>
<path fill="#4A4A4A" opacity="1.000000" stroke="none" 
	d="
M446.590393,419.181335 
	C446.590271,430.435608 446.590271,441.214081 446.590271,452.448792 
	C454.283508,452.448792 461.385834,452.448792 468.861633,452.448792 
	C468.861633,456.147156 468.861633,459.390656 468.861633,463.073181 
	C457.606598,463.073181 446.231812,463.073181 434.522400,463.073181 
	C434.522400,446.452423 434.522400,429.879456 434.522400,412.946777 
	C438.337036,412.946777 442.081177,412.946777 446.590485,412.946777 
	C446.590485,414.857635 446.590485,416.781555 446.590393,419.181335 
z"/>
<path fill="#444444" opacity="1.000000" stroke="none" 
	d="
M84.247215,443.936676 
	C84.247276,446.893341 84.247276,449.359924 84.247276,452.448853 
	C91.921280,452.448853 99.141571,452.448853 106.649460,452.448853 
	C106.649460,456.330750 106.649460,459.581879 106.649460,463.150635 
	C95.164345,463.150635 83.762352,463.150635 72.140488,463.150635 
	C72.140488,446.382080 72.140488,429.801941 72.140488,412.924164 
	C76.106712,412.924164 79.862099,412.924164 84.247154,412.924164 
	C84.247154,423.246674 84.247154,433.346649 84.247215,443.936676 
z"/>
<path fill="#494949" opacity="1.000000" stroke="none" 
	d="
M145.297363,452.964996 
	C141.444778,443.738617 137.728989,434.869934 133.609985,425.038910 
	C137.749283,425.038910 141.177750,424.762360 144.515823,425.190491 
	C145.667923,425.338257 147.067581,427.067322 147.544495,428.370392 
	C149.825516,434.602722 151.828568,440.936829 154.459290,448.819458 
	C155.905609,445.164673 156.855179,442.891418 157.704361,440.581268 
	C158.450867,438.550385 159.075638,436.475037 159.770401,434.424835 
	C163.394180,423.731384 163.395996,423.731995 175.559982,425.607635 
	C170.237579,437.741516 165.066422,449.768951 159.661133,461.690216 
	C158.265274,464.768738 150.334518,464.282410 148.753647,461.130035 
	C147.488434,458.607178 146.529190,455.930908 145.297363,452.964996 
z"/>
<path fill="#444444" opacity="1.000000" stroke="none" 
	d="
M115.556854,429.390717 
	C115.333900,426.444061 115.785744,424.702789 118.966988,425.001129 
	C121.408386,425.230072 123.888451,425.046661 126.733009,425.046661 
	C126.733009,437.855316 126.733009,450.232697 126.733009,463.039368 
	C123.288933,463.039368 119.754845,463.039368 115.556335,463.039368 
	C115.556335,452.008545 115.556335,440.930054 115.556854,429.390717 
z"/>
<path fill="#32FF9C" opacity="1.000000" stroke="none" 
	d="
M215.982162,505.041077 
	C212.786331,500.422943 212.424973,496.077148 215.905945,491.889923 
	C219.127258,488.015106 223.201935,487.640076 229.789871,490.351196 
	C230.175659,487.176819 230.563904,483.982269 230.952148,480.787750 
	C231.579727,480.844757 232.207321,480.901733 232.834900,480.958740 
	C232.834900,489.892181 232.834900,498.825623 232.834900,506.914398 
	C230.120285,507.261108 227.975052,507.968994 225.964493,507.693665 
	C222.673218,507.242859 219.469574,506.152496 215.982162,505.041077 
M227.488510,504.321655 
	C228.210266,503.425262 229.620346,502.453125 229.531570,501.645844 
	C229.193542,498.572449 229.163910,494.928131 227.440536,492.740753 
	C226.366257,491.377136 221.494507,491.135071 220.061600,492.382385 
	C218.130890,494.063049 216.965744,497.707397 217.101608,500.427612 
	C217.313599,504.671509 220.910507,505.968201 227.488510,504.321655 
z"/>
<path fill="#32FF9C" opacity="1.000000" stroke="none" 
	d="
M171.267380,501.624542 
	C176.408600,507.868866 182.417740,504.420013 188.819977,502.826263 
	C184.467178,509.119995 176.298203,509.837036 170.645523,505.422852 
	C164.845917,500.893982 164.028503,492.438995 168.842392,486.773102 
	C173.851471,480.877533 182.460190,480.484283 189.202240,486.923065 
	C186.933960,486.714142 185.685074,486.883148 184.687241,486.460052 
	C179.166489,484.119232 174.630432,484.597961 171.476257,488.434875 
	C168.127396,492.508606 168.020752,496.908630 171.267380,501.624542 
z"/>
<path fill="#28FF97" opacity="1.000000" stroke="none" 
	d="
M370.853210,506.172729 
	C360.776245,510.669189 351.574646,506.284241 350.366913,496.745422 
	C349.699860,491.477203 352.414001,486.148132 356.983002,483.755127 
	C362.286621,480.977386 367.822388,481.707336 372.308472,486.837372 
	C371.085602,486.598297 369.781372,486.555481 368.653259,486.087799 
	C362.048889,483.350220 355.333862,486.058716 353.692078,492.259674 
	C352.562439,496.526367 353.609955,500.277100 357.023712,503.059570 
	C360.594666,505.970184 364.600250,505.983582 368.760376,504.187042 
	C369.812927,503.732483 371.084320,503.784729 372.255127,503.604095 
	C371.900360,504.402191 371.545593,505.200256 370.853210,506.172729 
z"/>
<path fill="#1BFF91" opacity="1.000000" stroke="none" 
	d="
M332.535400,489.966064 
	C332.741852,487.176605 332.934570,484.385956 333.186798,481.600677 
	C333.202972,481.421997 333.679413,481.285004 334.690125,480.682526 
	C334.690125,489.998901 334.690125,498.900970 334.690125,507.117249 
	C332.829956,507.117249 331.000519,506.653656 329.551392,507.199615 
	C324.056793,509.269653 318.773010,507.398376 316.698547,502.321442 
	C314.430328,496.770294 316.765045,491.789917 322.652496,489.626526 
	C323.566254,489.290771 324.484772,488.967926 325.768372,489.011230 
	C325.148102,489.977234 324.216522,490.707703 323.162567,491.139587 
	C319.907532,492.473419 317.936798,496.985138 319.044098,500.798859 
	C320.017883,504.152679 323.897186,506.369537 327.336212,505.537445 
	C330.851349,504.686920 333.436798,500.658875 332.524384,497.025574 
	C332.104614,495.354156 331.074982,493.835907 330.477203,492.575562 
	C331.230499,491.620483 331.882965,490.793274 332.535400,489.966064 
z"/>
<path fill="#F3FFF9" opacity="1.000000" stroke="none" 
	d="
M332.185272,489.966736 
	C331.882965,490.793274 331.230499,491.620483 330.477203,492.575562 
	C331.074982,493.835907 332.104614,495.354156 332.524384,497.025574 
	C333.436798,500.658875 330.851349,504.686920 327.336212,505.537445 
	C323.897186,506.369537 320.017883,504.152679 319.044098,500.798859 
	C317.936798,496.985138 319.907532,492.473419 323.162567,491.139587 
	C324.216522,490.707703 325.148102,489.977234 326.179321,488.961487 
	C328.093658,489.015564 329.964386,489.491455 332.185272,489.966736 
z"/>
<path fill="#32FF9C" opacity="1.000000" stroke="none" 
	d="
M205.901642,489.943695 
	C210.264404,492.999268 211.400681,497.020905 210.053055,501.518372 
	C208.862167,505.492767 205.821671,507.699005 201.595261,508.103516 
	C197.360962,508.508789 194.112381,506.868927 192.039551,503.219482 
	C189.845947,499.357422 190.271835,495.422333 193.025146,492.097717 
	C196.429764,487.986694 200.841171,487.581787 205.901642,489.943695 
M204.840851,504.195587 
	C205.503845,501.171021 206.843933,498.077881 206.547440,495.150452 
	C206.396622,493.661377 203.221603,491.307587 201.555756,491.421600 
	C199.149094,491.586243 195.679153,493.117065 194.848862,495.019165 
	C193.870209,497.261169 194.246140,501.537476 195.832458,503.065613 
	C197.548386,504.718628 201.338486,504.218597 204.840851,504.195587 
z"/>
<path fill="#2CFF99" opacity="1.000000" stroke="none" 
	d="
M421.952454,507.978424 
	C420.462830,508.017395 418.948303,508.246704 417.488678,508.055939 
	C414.372131,507.648712 411.691711,505.898132 412.320801,502.674469 
	C412.717041,500.643890 414.963318,498.320679 416.960297,497.429291 
	C419.218231,496.421356 422.126221,496.869598 424.748322,496.684814 
	C424.418427,491.257111 424.156311,491.160767 413.422729,492.340942 
	C415.160492,488.325012 422.703308,487.230286 426.124268,490.497528 
	C428.900574,493.149078 429.279999,504.613861 426.138916,507.712891 
	C425.295563,504.843292 425.016724,502.257172 424.701935,499.337677 
	C423.732056,499.273590 422.442200,499.106293 421.154327,499.120544 
	C418.542877,499.149384 415.105621,498.681854 415.223450,502.396240 
	C415.262146,503.616455 418.697205,504.659760 420.474426,505.930389 
	C421.123444,506.394409 421.468658,507.283356 421.952454,507.978424 
z"/>
<path fill="#28FF97" opacity="1.000000" stroke="none" 
	d="
M256.029724,493.929474 
	C256.406281,495.469238 256.782837,497.009003 257.351379,499.333954 
	C251.782318,499.333954 246.889984,499.333954 241.902420,499.333954 
	C243.173004,505.536682 245.238800,506.183777 254.749054,503.978973 
	C253.494064,507.339081 250.504318,508.745728 246.261353,507.972351 
	C241.412369,507.088501 238.077820,502.986206 238.199341,498.054291 
	C238.338455,492.408478 241.309250,489.651123 248.672287,489.139954 
	C248.063385,490.117889 246.948456,490.535828 246.058716,491.238770 
	C244.246628,492.670380 242.555969,494.255707 240.815292,495.777710 
	C241.116272,496.105286 241.417267,496.432892 241.718246,496.760498 
	C245.715790,496.760498 249.713333,496.760498 253.878433,496.760498 
	C253.687836,495.300079 253.542007,494.182739 253.328781,492.548981 
	C254.633377,493.215759 255.331558,493.572601 256.029724,493.929474 
z"/>
<path fill="#28FF97" opacity="1.000000" stroke="none" 
	d="
M307.653870,494.731506 
	C305.126923,493.374939 302.301270,491.219971 300.432922,491.859955 
	C298.477600,492.529663 296.836365,495.713928 296.159454,498.110260 
	C295.331146,501.042511 295.660461,504.299103 295.434998,507.411560 
	C295.422638,507.582275 294.913086,507.717010 293.269653,508.612183 
	C292.769196,501.670074 293.152405,495.342682 293.036072,489.779388 
	C295.888397,489.454315 298.214508,489.394043 300.442322,488.895020 
	C305.995728,487.651093 310.209961,490.242126 310.724457,495.862061 
	C311.091461,499.870911 310.795715,503.940430 310.795715,507.982910 
	C309.985596,507.984528 309.175476,507.986176 308.365356,507.987823 
	C308.168915,503.712433 307.972443,499.437073 307.653870,494.731506 
z"/>
<path fill="#22FF95" opacity="1.000000" stroke="none" 
	d="
M463.562012,505.495605 
	C459.676697,509.244843 455.491241,508.553864 451.197723,506.337494 
	C447.236084,504.292450 446.975067,500.610657 447.322571,496.906342 
	C447.939728,490.327820 454.299347,487.006409 460.713226,490.353394 
	C460.238586,490.991333 459.332611,491.515442 458.548218,491.372467 
	C453.741821,490.496582 451.698120,491.805817 450.528839,496.891174 
	C451.869781,496.960266 453.198456,497.211548 454.479584,497.060242 
	C458.262024,496.613556 462.025696,496.007568 465.796692,495.463928 
	C466.159882,497.989868 465.637665,499.530426 462.510315,499.336517 
	C458.763428,499.104126 454.991089,499.281586 451.245941,499.281586 
	C451.212677,505.213654 454.753815,506.723419 462.413879,504.606873 
	C463.187256,505.095612 463.374634,505.295624 463.562012,505.495605 
z"/>
<path fill="#22FF95" opacity="1.000000" stroke="none" 
	d="
M276.009583,508.023254 
	C272.334381,507.732391 269.929199,505.792999 270.184998,502.079041 
	C270.453766,498.176544 273.559875,497.115814 277.010284,497.027802 
	C278.971527,496.977783 280.935089,497.018829 283.328033,497.018829 
	C281.956146,487.305176 275.471313,492.820953 271.118835,492.455109 
	C274.033295,488.023865 281.116150,487.307281 284.421997,490.818604 
	C286.842834,493.390015 287.104370,504.621124 284.356934,507.648102 
	C283.497650,504.733154 283.103241,502.158936 282.655121,499.234344 
	C282.002808,499.194824 281.004578,498.926239 280.106598,499.120667 
	C277.818359,499.615967 275.574890,500.318054 273.313538,500.937439 
	C274.196991,502.807495 275.112122,504.663727 275.939392,506.558289 
	C276.122223,506.976990 275.994354,507.531372 276.009583,508.023254 
z"/>
<path fill="#4A4A4A" opacity="1.000000" stroke="none" 
	d="
M127.620651,408.769958 
	C128.520721,412.600037 127.818329,416.002502 124.194405,416.661316 
	C121.520111,417.147461 117.942146,416.330322 115.818520,414.712982 
	C114.664734,413.834290 114.762978,408.763947 115.965584,407.895386 
	C118.138039,406.326416 121.547577,406.248962 124.472427,406.069946 
	C125.424103,406.011658 126.475258,407.578674 127.620651,408.769958 
z"/>
<path fill="#38FF9F" opacity="1.000000" stroke="none" 
	d="
M435.757324,504.798279 
	C435.498322,501.609283 435.597900,498.760620 435.175018,495.991760 
	C434.864380,493.958160 433.869324,492.029144 432.866913,489.159149 
	C433.471680,488.393005 434.936340,486.537628 436.433777,484.640686 
	C438.698853,486.315857 441.145599,488.125366 443.654114,489.980591 
	C442.105530,490.972290 439.260040,491.787354 438.864075,493.260773 
	C438.074158,496.199646 437.988708,499.696442 438.872559,502.575928 
	C439.388794,504.257751 442.341675,505.191650 444.165527,506.439575 
	C441.812195,509.394440 439.469727,509.218292 435.757324,504.798279 
z"/>
<path fill="#E8FFF4" opacity="1.000000" stroke="none" 
	d="
M276.256775,508.304749 
	C275.994354,507.531372 276.122223,506.976990 275.939392,506.558289 
	C275.112122,504.663727 274.196991,502.807495 273.313538,500.937439 
	C275.574890,500.318054 277.818359,499.615967 280.106598,499.120667 
	C281.004578,498.926239 282.002808,499.194824 282.655121,499.234344 
	C283.103241,502.158936 283.497650,504.733154 283.973206,507.641907 
	C281.537537,508.179688 279.020752,508.382965 276.256775,508.304749 
z"/>
<path fill="#32FF9C" opacity="1.000000" stroke="none" 
	d="
M377.985229,497.086548 
	C377.985229,494.156219 377.985229,491.700928 377.985229,489.416321 
	C381.561432,489.416321 384.696716,489.416321 387.333374,489.416321 
	C385.285889,492.020599 382.316040,494.441925 381.260712,497.519714 
	C380.194550,500.629120 381.025787,504.389130 381.025787,507.864105 
	C380.176331,507.903503 379.326874,507.942902 378.477448,507.982300 
	C378.313385,504.508728 378.149323,501.035126 377.985229,497.086548 
z"/>
<path fill="#E8FFF4" opacity="1.000000" stroke="none" 
	d="
M256.025726,493.579834 
	C255.331558,493.572601 254.633377,493.215759 253.328781,492.548981 
	C253.542007,494.182739 253.687836,495.300079 253.878433,496.760498 
	C249.713333,496.760498 245.715790,496.760498 241.718246,496.760498 
	C241.417267,496.432892 241.116272,496.105286 240.815292,495.777710 
	C242.555969,494.255707 244.246628,492.670380 246.058716,491.238770 
	C246.948456,490.535828 248.063385,490.117889 249.086975,489.164795 
	C251.405579,490.249115 253.713654,491.739655 256.025726,493.579834 
z"/>
<path fill="#E8FFF4" opacity="1.000000" stroke="none" 
	d="
M465.846191,495.074463 
	C462.025696,496.007568 458.262024,496.613556 454.479584,497.060242 
	C453.198456,497.211548 451.869781,496.960266 450.528839,496.891174 
	C451.698120,491.805817 453.741821,490.496582 458.548218,491.372467 
	C459.332611,491.515442 460.238586,490.991333 461.064819,490.379211 
	C462.659424,491.550232 464.277557,493.117645 465.846191,495.074463 
z"/>
<path fill="#E8FFF4" opacity="1.000000" stroke="none" 
	d="
M422.350525,507.987061 
	C421.468658,507.283356 421.123444,506.394409 420.474426,505.930389 
	C418.697205,504.659760 415.262146,503.616455 415.223450,502.396240 
	C415.105621,498.681854 418.542877,499.149384 421.154327,499.120544 
	C422.442200,499.106293 423.732056,499.273590 424.701935,499.337677 
	C425.016724,502.257172 425.295563,504.843292 425.752686,507.729706 
	C424.870178,508.018555 423.809357,508.007111 422.350525,507.987061 
z"/>
<path fill="#1BFF91" opacity="1.000000" stroke="none" 
	d="
M408.180084,494.932739 
	C408.453583,496.160309 408.727051,497.387878 409.108368,499.099487 
	C403.590668,499.099487 398.636047,499.099487 393.047272,499.099487 
	C393.973022,501.503174 394.688934,503.361908 395.517181,505.512360 
	C390.248474,503.442719 389.139740,498.643585 392.798187,492.119415 
	C394.193146,492.009705 394.806610,492.083099 395.240021,492.447235 
	C394.264008,493.950897 393.468048,495.163818 391.810150,497.690155 
	C397.625275,497.016937 401.927734,496.518860 406.469086,495.874023 
	C407.198700,495.462463 407.689392,495.197601 408.180084,494.932739 
z"/>
<path fill="#32FF9C" opacity="1.000000" stroke="none" 
	d="
M408.167419,494.571533 
	C407.689392,495.197601 407.198700,495.462463 406.262482,495.579437 
	C403.538452,490.571381 399.819794,490.282898 395.420074,492.156464 
	C394.806610,492.083099 394.193146,492.009705 393.118591,491.887085 
	C398.406525,486.592102 404.274475,487.490417 408.167419,494.571533 
z"/>
<path fill="#1BFF91" opacity="1.000000" stroke="none" 
	d="
M406.029358,506.052490 
	C401.130493,508.898407 398.482758,508.793549 395.252960,505.490997 
	C398.176300,505.272736 400.981140,505.063324 404.445984,504.925079 
	C405.413757,505.348328 405.721558,505.700409 406.029358,506.052490 
z"/>
<path fill="#38FF9F" opacity="1.000000" stroke="none" 
	d="
M406.299011,506.004242 
	C405.721558,505.700409 405.413757,505.348328 404.791565,504.825256 
	C405.313141,504.431763 406.149048,504.209259 406.984985,503.986755 
	C406.846252,504.643158 406.707489,505.299591 406.299011,506.004242 
z"/>
<path fill="#22FF95" opacity="1.000000" stroke="none" 
	d="
M462.786407,504.544373 
	C463.026184,504.477509 463.479462,504.761902 463.747375,505.270935 
	C463.374634,505.295624 463.187256,505.095612 462.786407,504.544373 
z"/>
<path fill="#F7F7F7" opacity="1.000000" stroke="none" 
	d="
M345.934814,446.517578 
	C343.767273,453.346069 340.368011,455.612061 335.013733,454.185333 
	C330.474823,452.975861 327.899139,447.455963 329.077179,441.462891 
	C330.066498,436.430145 333.793884,433.501251 338.581543,433.994537 
	C343.631683,434.514893 346.078217,438.520813 345.934814,446.517578 
z"/>
<path fill="#F7F7F7" opacity="1.000000" stroke="none" 
	d="
M541.496826,434.282043 
	C548.548401,434.319031 551.874573,437.396606 552.030212,443.615845 
	C552.185364,449.814026 549.114258,453.905884 544.074097,454.284027 
	C539.867981,454.599609 537.096741,452.641846 535.560791,448.868744 
	C533.795166,444.531525 534.972961,438.630554 538.112976,436.031067 
	C538.983276,435.310547 540.105591,434.894409 541.496826,434.282043 
z"/>
<path fill="#F7F7F7" opacity="1.000000" stroke="none" 
	d="
M489.969086,434.669067 
	C494.186737,433.516846 497.635498,434.064331 499.894897,437.672333 
	C502.482452,441.804321 502.831818,446.506256 500.008759,450.277588 
	C498.438904,452.374817 494.895996,453.721436 492.101532,454.001556 
	C488.133545,454.399323 485.980621,451.331451 484.949097,447.690338 
	C483.424103,442.307373 484.963745,438.126312 489.969086,434.669067 
z"/>
<path fill="#F9F9F9" opacity="1.000000" stroke="none" 
	d="
M291.892487,454.094421 
	C283.629944,453.947235 281.330170,446.035278 283.329681,440.172913 
	C284.617523,436.397095 287.496704,434.117706 291.666351,434.193176 
	C296.068756,434.272827 298.987549,436.811829 299.926605,440.885803 
	C300.924438,445.214600 300.741577,449.649200 296.431061,452.503510 
	C295.229675,453.299042 293.683533,453.573883 291.892487,454.094421 
z"/>
<path fill="#F0F0F0" opacity="1.000000" stroke="none" 
	d="
M203.409088,436.588226 
	C204.011642,437.759857 204.355942,438.637024 204.860321,439.921997 
	C199.634705,439.921997 194.850204,439.921997 189.969620,439.921997 
	C191.972687,433.617279 197.067505,432.322449 203.409088,436.588226 
z"/>
<path fill="#F0F0F0" opacity="1.000000" stroke="none" 
	d="
M389.269775,435.801086 
	C390.146332,437.177673 390.716858,438.280518 391.559448,439.909149 
	C386.226044,439.909149 381.567017,439.909149 376.874115,439.909149 
	C378.209991,434.021545 382.505585,432.507599 389.269775,435.801086 
z"/>
<path fill="#F3FFF9" opacity="1.000000" stroke="none" 
	d="
M227.132965,504.551361 
	C220.910507,505.968201 217.313599,504.671509 217.101608,500.427612 
	C216.965744,497.707397 218.130890,494.063049 220.061600,492.382385 
	C221.494507,491.135071 226.366257,491.377136 227.440536,492.740753 
	C229.163910,494.928131 229.193542,498.572449 229.531570,501.645844 
	C229.620346,502.453125 228.210266,503.425262 227.132965,504.551361 
z"/>
<path fill="#F3FFF9" opacity="1.000000" stroke="none" 
	d="
M204.532379,504.426636 
	C201.338486,504.218597 197.548386,504.718628 195.832458,503.065613 
	C194.246140,501.537476 193.870209,497.261169 194.848862,495.019165 
	C195.679153,493.117065 199.149094,491.586243 201.555756,491.421600 
	C203.221603,491.307587 206.396622,493.661377 206.547440,495.150452 
	C206.843933,498.077881 205.503845,501.171021 204.532379,504.426636 
z"/>
<path fill="#F3FFF9" opacity="1.000000" stroke="none" 
	d="
M395.240021,492.447235 
	C399.819794,490.282898 403.538452,490.571381 406.023590,495.726166 
	C401.927734,496.518860 397.625275,497.016937 391.810150,497.690155 
	C393.468048,495.163818 394.264008,493.950897 395.240021,492.447235 
z"/>
</svg>